<?xml version="1.0" encoding="UTF-8"?><svg xmlns="http://www.w3.org/2000/svg" xmlns:xlink="http://www.w3.org/1999/xlink" height="231.0" preserveAspectRatio="xMidYMid meet" version="1.0" viewBox="0.0 0.0 231.0 231.0" width="231.0" zoomAndPan="magnify"><g id="change1_1"><path d="M115.5,0C51.7,0,0,51.7,0,115.5c0,63.8,51.7,115.5,115.5,115.5c63.8,0,115.5-51.7,115.5-115.5C230.9,51.7,179.2,0,115.5,0z M182,147.8c-1.3,8.5-8.7,14.7-17.3,14.7h-51.3H66.2c-8.6,0-16-6.2-17.3-14.7c-1.2-7.9-2.4-18.9-2.5-32.4 c0.1-13.5,1.2-24.4,2.5-32.4c1.3-8.5,8.7-14.7,17.3-14.7h47.2h51.3c8.6,0,16,6.2,17.3,14.7c1.2,7.9,2.4,18.9,2.5,32.4 C184.4,128.9,183.2,139.9,182,147.8z"/><path d="M100.9 96.7L100.9 134.2 135.8 115.5z"/></g></svg>