<?xml version="1.0" encoding="UTF-8"?><!-- Generator: Adobe Illustrator 22.1.0, SVG Export Plug-In . SVG Version: 6.00 Build 0)  --><svg xmlns="http://www.w3.org/2000/svg" enable-background="new 0 0 142.4 162.8" id="图层_1" version="1.1" viewBox="0 0 142.4 162.8" x="0px" xml:space="preserve" y="0px">
<g>
	<g id="change1_2"><path d="m71.2 39c0.1-13 0-26 0.1-39h26.5c-0.1 2.3 0.2 4.6 0.6 6.8h-19.5v105.5c0.1 4.5-1 9-3.2 12.9-3.4 6-9.9 10.1-16.8 10.7-4.4 0.3-8.8-0.5-12.8-2.6-3-1.6-5.5-3.9-7.5-6.7 6.8 3.8 15.6 3.4 22.2-0.8 6.3-3.9 10.5-11.3 10.5-18.8-0.1-22.8-0.1-45.4-0.1-68zm43.7-7.5c3.7 2.3 7.8 4.1 12.1 5.1 2.5 0.6 5.1 0.8 7.7 0.8v6c-7.6-1.8-14.6-6-19.8-11.9z" fill="#25F4EE"/></g>
	<g id="change1_1"><path d="m23.3 64.6c9.5-6 21.1-8.4 32.2-6.8v6.3c-3 0.1-5.9 0.5-8.8 1-7.1 1.5-13.9 4.5-19.8 8.8-6.3 4.7-11.1 11.1-14.5 18.3-3.2 6.8-4.8 14.3-4.7 21.8 0 8.3 2.3 16.3 6.2 23.6 1.8 3.3 3.9 6.6 6.7 9.2-5.6-3.9-10.3-9.2-13.8-15.2-4.7-7.9-7-17.2-6.8-26.5 0.3-8.5 2.8-16.9 7.2-24.2 4-6.5 9.6-12.3 16.1-16.3z" fill="#25F4EE"/></g>
	<g id="change2_1"><path d="m78.9 6.8h19.7c0.7 3.8 2.1 7.4 3.8 10.8 2.8 5.3 6.7 10 11.7 13.1 0.3 0.2 0.6 0.5 0.8 0.8 5.2 5.9 12.2 10.1 19.9 11.8 0.1 6.9 0 13.9 0 20.8-13 0.1-26-4-36.5-11.6 0 16.5 0 33.1 0.1 49.6 0 2.2 0.1 4.4 0 6.7-0.6 8-3.1 16-7.1 23-3.4 6.1-8.2 11.5-13.8 15.6-7.2 5.4-16.2 8.4-25.2 8.6-4.6 0.1-9.2-0.1-13.7-1.1-6.3-1.4-12.3-4-17.6-7.7l-0.3-0.3c-2.6-2.6-4.8-5.9-6.7-9.2-3.9-7.1-6.2-15.3-6.2-23.6-0.1-7.5 1.5-15.1 4.7-21.8 3.3-7.1 8.3-13.6 14.5-18.3 5.9-4.4 12.6-7.4 19.8-8.8 2.9-0.6 5.9-0.9 8.8-1 0.1 2.6 0 5.3 0.1 7.8v13.4c-3.3-1.1-7-1.1-10.5-0.3-4.1 0.9-8 2.8-11.3 5.5-2 1.7-3.7 3.8-4.8 6.1-2.1 3.9-2.8 8.5-2.3 12.9 0.5 4.3 2.3 8.4 5.1 11.6 1.8 2.3 4.3 4 6.7 5.6 2 2.8 4.5 5.1 7.5 6.7 3.9 2.1 8.4 3 12.8 2.6 6.9-0.5 13.3-4.7 16.8-10.7 2.2-3.9 3.3-8.4 3.2-12.9 0.1-35.4 0-70.6 0-105.7z" fill="#fff"/></g>
	<g id="change3_1"><path d="m98.5 6.8c2.3 0.1 4.6 0 7 0 0 7.7 2.4 15.4 6.9 21.7 0.6 0.8 1.1 1.5 1.7 2.2-5.1-3.1-9.1-7.8-11.7-13.1-1.7-3.3-3.1-7-3.9-10.8zm36.2 36.5c2.5 0.6 5.1 0.8 7.7 0.8v26.8c-13.1 0.1-26.2-4.3-36.9-12v53.1c0.1 4-0.2 8-1.1 12-2.5 12-9.7 22.8-19.5 29.8-5.2 3.8-11.2 6.4-17.5 7.8-7.6 1.7-15.5 1.6-23-0.3-8.9-2.3-17.1-7.2-23.3-14 5.3 3.8 11.3 6.3 17.6 7.7 4.5 1 9.1 1.3 13.7 1.1 9-0.2 17.9-3.2 25.2-8.6 5.6-4.1 10.2-9.5 13.8-15.6 4-7 6.6-14.9 7.1-23 0.1-2.2 0.1-4.4 0-6.7-0.1-16.6-0.1-33.1-0.1-49.6 10.6 7.6 23.6 11.7 36.5 11.6-0.2-7-0.1-14-0.2-20.9z" fill="#FE2C55"/></g>
	<g id="change3_2"><path d="m55.6 64c2.5 0 5.2 0.1 7.7 0.5v27.5c-3.7-1.3-7.8-1.4-11.6-0.5-7.2 1.6-13.3 7.1-15.9 14.1-2.5 6.9-1.5 14.9 2.9 20.8-2.5-1.5-4.8-3.3-6.7-5.6-2.8-3.2-4.6-7.4-5.1-11.6-0.5-4.4 0.2-9 2.3-12.9 1.1-2.3 2.9-4.4 4.8-6.1 3.2-2.8 7.2-4.5 11.3-5.5 3.4-0.8 7.1-0.8 10.5 0.3v-13.4c-0.2-2.3 0-4.9-0.2-7.6z" fill="#FE2C55"/></g>
</g>
</svg>