<?xml version="1.0" encoding="UTF-8"?><svg xmlns="http://www.w3.org/2000/svg" xmlns:xlink="http://www.w3.org/1999/xlink" height="500.0" preserveAspectRatio="xMidYMid meet" version="1.0" viewBox="0.0 0.0 500.0 500.0" width="500.0" zoomAndPan="magnify"><g fill="#070605" id="change1_1"><path d="M 384.121094 395.785156 L 115.890625 395.785156 C 91.34375 395.785156 71.375 375.8125 71.375 351.269531 L 71.375 172.4375 C 71.375 147.90625 91.34375 127.941406 115.890625 127.941406 L 184.871094 127.941406 L 193.410156 115.132812 C 197.699219 108.703125 206.085938 104.214844 213.804688 104.214844 L 286.195312 104.214844 C 293.808594 104.214844 302.378906 108.8125 306.585938 115.140625 L 315.117188 127.941406 L 384.121094 127.941406 C 408.660156 127.941406 428.628906 147.90625 428.628906 172.4375 L 428.628906 351.269531 C 428.628906 375.8125 408.660156 395.785156 384.121094 395.785156 Z M 250 0 C 111.929688 0 0 111.929688 0 250 C 0 388.070312 111.929688 500 250 500 C 388.070312 500 500 388.070312 500 250 C 500 111.929688 388.070312 0 250 0" fill="inherit"/><path d="M 249.996094 358.890625 C 196.492188 358.890625 152.964844 315.371094 152.964844 261.871094 C 152.964844 208.367188 196.492188 164.832031 249.996094 164.832031 C 303.507812 164.832031 347.039062 208.367188 347.039062 261.871094 C 347.039062 315.371094 303.507812 358.890625 249.996094 358.890625 Z M 134.378906 204.390625 C 123.949219 204.390625 115.492188 195.933594 115.492188 185.503906 C 115.492188 175.074219 123.949219 166.617188 134.378906 166.617188 C 144.808594 166.617188 153.265625 175.074219 153.265625 185.503906 C 153.265625 195.933594 144.808594 204.390625 134.378906 204.390625 Z M 384.121094 149.890625 L 303.378906 149.890625 L 288.3125 127.300781 C 287.96875 126.921875 286.6875 126.238281 286.058594 126.160156 L 213.804688 126.164062 C 213.300781 126.238281 212.007812 126.925781 211.59375 127.410156 L 196.625 149.890625 L 115.890625 149.890625 C 103.449219 149.890625 93.324219 160.003906 93.324219 172.4375 L 93.324219 351.269531 C 93.324219 363.710938 103.449219 373.832031 115.890625 373.832031 L 384.121094 373.832031 C 396.558594 373.832031 406.675781 363.710938 406.675781 351.269531 L 406.675781 172.4375 C 406.675781 160.003906 396.558594 149.890625 384.121094 149.890625" fill="inherit"/><path d="M 249.996094 311.46875 C 222.644531 311.46875 200.386719 289.21875 200.386719 261.863281 C 200.386719 234.511719 222.644531 212.257812 249.996094 212.257812 C 277.359375 212.257812 299.613281 234.511719 299.613281 261.863281 C 299.613281 289.21875 277.359375 311.46875 249.996094 311.46875 Z M 249.996094 186.785156 C 208.597656 186.785156 174.917969 220.464844 174.917969 261.871094 C 174.917969 303.265625 208.597656 336.941406 249.996094 336.941406 C 291.402344 336.941406 325.089844 303.265625 325.089844 261.871094 C 325.089844 220.464844 291.402344 186.785156 249.996094 186.785156" fill="inherit"/></g></svg>